<svg id="Capa_1" enable-background="new 0 0 512 512" height="512" viewBox="0 0 512 512" width="512" xmlns="http://www.w3.org/2000/svg"><circle cx="256" cy="256" fill="#bde9f4" r="256"/><path d="m507.57 303.61v.01c-.74 3.98-1.58 7.93-2.52 11.84-146.31-4.25-234.41 151.46-382.58 142.1-35.38-97.22-70.76-194.44-106.16-291.66-2.87-7.91-5.75-15.81-8.63-23.72 6.37.4 12.64.5 18.8.32 114.06-3.38 193.25-102.57 297.3-133.42 23.04-6.84 47.3-10.32 73.43-8.67 6.97 19.16 13.95 38.31 20.92 57.47 29.82 81.91 59.63 163.82 89.44 245.73z" fill="#f1eee9"/><path d="m435.475 105.531c-150.505-9.509-239.024 151.286-389.53 141.777-6.377-17.521-12.754-35.042-19.131-52.563 150.505 9.509 239.025-151.286 389.53-141.777 6.377 17.521 12.754 35.042 19.131 52.563z" fill="#f93d6e"/><path d="m454.607 158.093c-150.505-9.509-239.025 151.286-389.53 141.777-6.377-17.521-12.754-35.042-19.131-52.562 150.505 9.509 239.025-151.286 389.53-141.777 6.376 17.52 12.754 35.041 19.131 52.562z" fill="#f1eee9"/><path d="m473.738 210.655c-150.505-9.509-239.025 151.285-389.53 141.777-6.377-17.521-12.754-35.042-19.131-52.562 150.505 9.509 239.025-151.286 389.53-141.777 6.377 17.521 12.754 35.042 19.131 52.562z" fill="#f93d6e"/><path d="m492.869 263.218c-150.505-9.508-239.025 151.285-389.53 141.777-6.377-17.521-12.754-35.042-19.131-52.563 150.505 9.509 239.025-151.286 389.53-141.777 6.377 17.521 12.754 35.042 19.131 52.563z" fill="#f1eee9"/><path d="m507.57 303.62c-.74 3.98-1.58 7.93-2.52 11.84-146.31-4.25-234.41 151.46-382.58 142.1-6.38-17.52-12.75-35.04-19.13-52.56 150.5 9.5 239.02-151.29 389.53-141.78 4.9 13.47 9.8 26.93 14.7 40.4z" fill="#f93d6e"/><path d="m257.69 230.34c-11.19 7.08-22.39 14.15-33.7 20.91-48.34 28.93-98.66 52.42-158.91 48.62-6.38-17.52-12.75-35.04-19.13-52.56-9.88-27.14-19.76-54.27-29.64-81.41-2.87-7.91-5.75-15.81-8.63-23.72 6.37.4 12.64.5 18.8.32 52.08-1.54 96.89-23.06 140.12-48.93 11.31-6.77 22.51-13.83 33.7-20.91z" fill="#00bef7"/><g fill="#f1eee9"><circle cx="88.883" cy="166.205" r="17.957"/><circle cx="139.204" cy="150.145" r="17.957"/><circle cx="186.739" cy="125.408" r="17.957"/><circle cx="125.705" cy="254.888" r="17.957"/><circle cx="176.027" cy="238.829" r="17.957"/><circle cx="223.562" cy="214.091" r="17.957"/><circle cx="181.868" cy="180.495" r="17.957"/><circle cx="126.103" cy="203.752" r="17.957"/></g><path d="m176.09 499.28c-7.01-2.31-13.89-4.9-20.61-7.78-1.15-.49-2.29-.99-3.43-1.5-7.45-3.3-14.71-6.96-21.76-10.95-1.22-.69-2.43-1.39-3.64-2.1l-111.78-307.1-1.44-3.95-8.63-23.72-4.8-13.19 36.48-13.28.89 2.44 1.05 2.9z" fill="#d9723e"/><path d="m152.05 490c-7.45-3.3-14.71-6.96-21.76-10.95-1.22-.69-2.43-1.39-3.64-2.1l-111.78-307.1-1.44-3.95-8.63-23.72-4.8-13.19 18.24-6.64 6.5 17.87 1.22 3.35z" fill="#bd5423"/></svg>